<?xml version="1.0" encoding="UTF-8" standalone="no"?>
<!DOCTYPE svg PUBLIC "-//W3C//DTD SVG 1.1//EN" "http://www.w3.org/Graphics/SVG/1.1/DTD/svg11.dtd">
<svg width="100%" height="100%" viewBox="0 0 300 300" version="1.1" xmlns="http://www.w3.org/2000/svg" xmlns:xlink="http://www.w3.org/1999/xlink" xml:space="preserve" xmlns:serif="http://www.serif.com/" style="fill-rule:evenodd;clip-rule:evenodd;stroke-linejoin:round;stroke-miterlimit:2;">
    <g transform="matrix(0.295918,3.225e-34,-3.225e-34,-0.295918,20.6397,570.204)">
        <path d="M69.6,930C63.9,930 59.1,932 55.1,935.9C51.2,939.8 49.2,944.7 49.2,950.4L49.2,1889.6C49.2,1895.3 51.2,1900.1 55.1,1904.1C59,1908 63.9,1910 69.6,1910L498.4,1910L498.4,1603.7C498.4,1598 500.4,1593.2 504.3,1589.2C508.2,1585.3 513.1,1583.3 518.8,1583.3L825,1583.3L825,950.4C825,944.7 823,939.9 819.1,935.9C815.2,932 810.3,930 804.6,930L69.6,930ZM559.6,1624.2C553.9,1624.2 549.1,1626.2 545.1,1630.1C541.1,1634 539.2,1638.9 539.2,1644.6L539.2,1910L825,1624.2L559.6,1624.2Z" style="fill:url(#_Linear1);fill-rule:nonzero;"/>
    </g>
    <g transform="matrix(0.833333,0,0,0.833333,-55.9713,-125.256)">
        <path d="M247.166,292.946C300.149,292.946 343.166,335.962 343.166,388.946C343.166,441.929 300.149,484.945 247.166,484.945C194.182,484.945 151.166,441.929 151.166,388.946C151.166,335.962 194.182,292.946 247.166,292.946ZM247.166,371.025L293.246,324.945L311.166,342.865L265.086,388.945L311.166,435.025L293.246,452.945L247.166,406.865L202.366,451.665L184.446,433.745L229.246,388.945L183.166,342.865L201.086,324.945L247.166,371.025Z" style="fill:white;"/>
    </g>
    <defs>
        <linearGradient id="_Linear1" x1="0" y1="0" x2="1" y2="0" gradientUnits="userSpaceOnUse" gradientTransform="matrix(6.20767e-14,-1013.79,1013.79,6.20767e-14,437.1,1926.9)"><stop offset="0" style="stop-color:rgb(226,0,230);stop-opacity:1"/><stop offset="1" style="stop-color:rgb(223,75,0);stop-opacity:1"/></linearGradient>
    </defs>
</svg>