<?xml version="1.0" encoding="UTF-8" standalone="no"?>
<!DOCTYPE svg PUBLIC "-//W3C//DTD SVG 1.1//EN" "http://www.w3.org/Graphics/SVG/1.1/DTD/svg11.dtd">
<svg width="100%" height="100%" viewBox="0 0 300 300" version="1.1" xmlns="http://www.w3.org/2000/svg" xmlns:xlink="http://www.w3.org/1999/xlink" xml:space="preserve" xmlns:serif="http://www.serif.com/" style="fill-rule:evenodd;clip-rule:evenodd;stroke-linejoin:round;stroke-miterlimit:2;">
    <g transform="matrix(0.295918,3.225e-34,-3.225e-34,-0.295918,20.6397,570.204)">
        <path d="M69.6,930C63.9,930 59.1,932 55.1,935.9C51.2,939.8 49.2,944.7 49.2,950.4L49.2,1889.6C49.2,1895.3 51.2,1900.1 55.1,1904.1C59,1908 63.9,1910 69.6,1910L498.4,1910L498.4,1603.7C498.4,1598 500.4,1593.2 504.3,1589.2C508.2,1585.3 513.1,1583.3 518.8,1583.3L825,1583.3L825,950.4C825,944.7 823,939.9 819.1,935.9C815.2,932 810.3,930 804.6,930L69.6,930ZM559.6,1624.2C553.9,1624.2 549.1,1626.2 545.1,1630.1C541.1,1634 539.2,1638.9 539.2,1644.6L539.2,1910L825,1624.2L559.6,1624.2Z" style="fill:url(#_Linear1);fill-rule:nonzero;"/>
    </g>
    <g transform="matrix(0.25,0,0,0.25105,86,134.327)">
        <path d="M437.09,74.98C388.781,26.629 324.551,0 256.234,0C194.656,0 136.07,21.809 89.707,61.699L40.105,12.961L30.168,181.469L201.469,168.801L152.859,123.773C182.281,100.672 218.43,88.105 256.234,88.105C348.727,88.105 423.977,163.422 423.977,256C423.977,348.578 348.727,423.898 256.234,423.898C213.77,423.898 173.258,407.98 142.156,379.082C111.223,350.332 92.359,311.395 89.047,269.438L87.953,255.621L0,255.621L0.949,271.516C9.016,406.367 121.148,512 256.234,512C324.551,512 388.781,485.371 437.09,437.02C485.395,388.668 512,324.379 512,256C512,187.621 485.395,123.332 437.09,74.98Z" style="fill:white;fill-rule:nonzero;"/>
    </g>
    <defs>
        <linearGradient id="_Linear1" x1="0" y1="0" x2="1" y2="0" gradientUnits="userSpaceOnUse" gradientTransform="matrix(6.20769e-14,-1013.79,-1013.79,-6.20769e-14,437.1,1926.9)"><stop offset="0" style="stop-color:rgb(25,249,255);stop-opacity:1"/><stop offset="1" style="stop-color:rgb(182,27,255);stop-opacity:1"/></linearGradient>
    </defs>
</svg>